<?xml version="1.0" standalone="no"?>
<!DOCTYPE svg PUBLIC "-//W3C//DTD SVG 20010904//EN"
 "http://www.w3.org/TR/2001/REC-SVG-20010904/DTD/svg10.dtd">
<svg version="1.0" xmlns="http://www.w3.org/2000/svg"
 width="1080.000000pt" height="1080.000000pt" viewBox="0 0 1080.000000 1080.000000"
 preserveAspectRatio="xMidYMid meet">
<metadata>
Created by potrace 1.11, written by Peter Selinger 2001-2013
</metadata>
<g transform="translate(0.000000,1080.000000) scale(0.100000,-0.100000)"
fill="#000000" stroke="none">
<path d="M5201 9190 c-334 -47 -646 -203 -881 -441 -517 -523 -581 -1349 -153
-1953 74 -104 245 -275 349 -349 162 -115 366 -204 564 -249 92 -20 131 -23
320 -23 239 0 304 9 486 70 226 75 410 190 590 370 224 223 364 489 421 798
25 133 24 409 -1 542 -57 308 -200 580 -421 800 -214 214 -467 352 -767 416
-106 23 -399 34 -507 19z"/>
<path d="M1500 3476 l0 -1876 300 0 300 0 0 705 0 705 204 0 c234 0 333 13
465 63 268 101 428 328 471 670 5 45 10 243 10 440 0 398 -10 506 -59 651 -75
224 -228 384 -437 457 -148 51 -156 52 -721 56 l-533 4 0 -1875z m998 1309
c50 -20 112 -88 132 -142 19 -53 27 -801 9 -887 -17 -80 -62 -144 -124 -176
-47 -24 -60 -25 -232 -28 l-183 -4 0 632 0 632 178 -4 c138 -4 186 -9 220 -23z"/>
<path d="M3540 3475 l0 -1875 805 0 805 0 0 275 0 275 -505 0 -505 0 0 540 0
540 400 0 400 0 0 275 0 275 -400 0 -400 0 0 515 0 515 505 0 505 0 0 270 0
270 -805 0 -805 0 0 -1875z"/>
<path d="M5500 3475 l0 -1875 805 0 805 0 0 275 0 275 -505 0 -505 0 0 540 0
540 405 0 405 0 0 275 0 275 -405 0 -405 0 0 515 0 515 505 0 505 0 0 270 0
270 -805 0 -805 0 0 -1875z"/>
<path d="M7470 3475 l0 -1875 295 0 295 0 0 761 0 761 168 -4 c149 -3 172 -6
217 -26 88 -40 147 -116 176 -224 8 -28 14 -221 19 -563 6 -494 8 -525 29
-613 l23 -92 305 0 305 0 -6 23 c-52 178 -49 137 -56 697 -7 554 -12 616 -60
754 -49 143 -152 273 -263 331 l-55 29 51 30 c133 75 242 234 289 421 22 85
23 108 23 450 0 303 -3 372 -17 437 -77 345 -288 525 -668 568 -47 5 -307 10
-577 10 l-493 0 0 -1875z m1017 1299 c46 -24 64 -40 90 -83 52 -87 58 -134 58
-451 0 -267 -1 -290 -22 -356 -28 -89 -81 -152 -155 -185 -47 -21 -71 -24
-225 -27 l-173 -4 0 572 0 572 184 -4 c181 -4 185 -4 243 -34z"/>
</g>
</svg>
