<?xml version="1.0" encoding="utf-8"?>
<!-- Generator: Adobe Illustrator 19.0.0, SVG Export Plug-In . SVG Version: 6.00 Build 0)  -->
<svg version="1.1" id="Layer_1" xmlns="http://www.w3.org/2000/svg" xmlns:xlink="http://www.w3.org/1999/xlink" x="0px" y="0px"
	 viewBox="0 0 1080 1080" style="enable-background:new 0 0 1080 1080;" xml:space="preserve">
<style type="text/css">
	.st0{fill:#4C3F77;}
	.st1{fill:#FFFFFF;}
</style>
<path id="XMLID_613_" class="st0" d="M-1841,1479.7c0,52,42.2,95.3,94.2,95.3h891.3c52,0,94.5-44.3,94.5-96.3V587.3
	c0-52-42.5-92.3-94.5-92.3h-891.3c-52,0-94.2,41.8-94.2,93.8"/>
<g id="XMLID_673_">
	<g id="XMLID_672_">
		<path id="XMLID_610_" class="st1" d="M-1516.4,1132.9v48.6c0,59.8-28.8,92.3-87.5,92.3h-27.8v140.4h-58.7v-373.6h86.5
			C-1545.2,1040.5-1516.4,1073.1-1516.4,1132.9z M-1631.7,1093.9v126.5h27.8c18.7,0,28.8-8.5,28.8-35.2v-56
			c0-26.7-10.1-35.2-28.8-35.2H-1631.7z"/>
		<path id="XMLID_608_" class="st1" d="M-1427.8,1198h80.6v53.4h-80.6v109.4h101.4v53.4h-160.1v-373.6h160.1v53.4h-101.4V1198z"/>
		<path id="XMLID_606_" class="st1" d="M-1231.5,1198h80.6v53.4h-80.6v109.4h101.4v53.4h-160.1v-373.6h160.1v53.4h-101.4V1198z"/>
		<path id="XMLID_603_" class="st1" d="M-971,1414.1c-3.2-9.6-5.3-15.5-5.3-45.9v-58.7c0-34.7-11.7-47.5-38.4-47.5h-20.3v152.1
			h-58.7v-373.6h88.6c60.8,0,87,28.3,87,85.9v29.4c0,38.4-12.3,63.5-38.4,75.8c29.4,12.3,39,40.6,39,79.5v57.6
			c0,18.1,0.5,31.5,6.4,45.4H-971z M-1035.1,1093.9v114.8h23c21.9,0,35.2-9.6,35.2-39.5v-36.8c0-26.7-9.1-38.4-29.9-38.4H-1035.1z"
			/>
	</g>
	<circle id="XMLID_601_" class="st1" cx="-1300.8" cy="806.7" r="151.3"/>
</g>
<path id="XMLID_16_" class="st1" d="M0,984.7c0,52,42.2,95.3,94.2,95.3h891.3c52,0,94.5-44.3,94.5-96.3V92.3
	c0-52-42.5-92.3-94.5-92.3H94.2C42.2,0,0,41.8,0,93.8"/>
<g id="XMLID_1_">
	<g id="XMLID_3_">
		<path id="XMLID_13_" class="st0" d="M324.6,637.9v48.6c0,59.8-28.8,92.3-87.5,92.3h-27.8v140.4h-58.7V545.5H237
			C295.8,545.5,324.6,578.1,324.6,637.9z M209.3,598.9v126.5H237c18.7,0,28.8-8.5,28.8-35.2v-56c0-26.7-10.1-35.2-28.8-35.2H209.3z"
			/>
		<path id="XMLID_10_" class="st0" d="M413.2,703h80.6v53.4h-80.6v109.4h101.4v53.4H354.4V545.5h160.1v53.4H413.2V703z"/>
		<path id="XMLID_7_" class="st0" d="M609.5,703h80.6v53.4h-80.6v109.4H711v53.4H550.8V545.5H711v53.4H609.5V703z"/>
		<path id="XMLID_4_" class="st0" d="M870,919.1c-3.2-9.6-5.3-15.5-5.3-45.9v-58.7c0-34.7-11.7-47.5-38.4-47.5h-20.3v152.1h-58.7
			V545.5h88.6c60.8,0,87,28.3,87,85.9v29.4c0,38.4-12.3,63.5-38.4,75.8c29.4,12.3,39,40.6,39,79.5v57.6c0,18.1,0.5,31.5,6.4,45.4
			H870z M805.9,598.9v114.8h23c21.9,0,35.2-9.6,35.2-39.5v-36.8c0-26.7-9.1-38.4-29.9-38.4H805.9z"/>
	</g>
	<circle id="XMLID_2_" class="st0" cx="540.2" cy="311.7" r="151.3"/>
</g>
</svg>
